# xmcd
#
# Track frame offsets: 
#        150
#        14780
#        34192
#        49115
#        69302
#        84715
#        99185
#        119695
#        136440
#        147162
#        162022
#
# Disc length: 2204 seconds
#
# Revision: 2
# Processed by: cddbd v1.5.1PL2 Copyright (c) Steve Scherf et al.
# Submitted via: ExactAudioCopy v0.95a5
#
DISCID=96089a0b
DTITLE=Emotions - Sunbeam
DYEAR=1978
DGENRE=Soul
TTITLE0=Smile
TTITLE1=Love Is Right On
TTITLE2=Time Is Passing By
TTITLE3=Walking The Line
TTITLE4=Ain't No Doubt About It
TTITLE5=Love Vibes
TTITLE6=I Wouldn't Lie
TTITLE7=My Everything
TTITLE8=Spirit Of Summer
TTITLE9=Whole Lot Of Shakin'
TTITLE10=Music Box
EXTD=
EXTT0=
EXTT1=
EXTT2=
EXTT3=
EXTT4=
EXTT5=
EXTT6=
EXTT7=
EXTT8=
EXTT9=
EXTT10=
PLAYORDER=
